<mxfile host="app.diagrams.net" modified="2023-12-13T04:36:21.337Z" agent="Mozilla/5.0 (Windows NT 10.0; Win64; x64) AppleWebKit/537.36 (KHTML, like Gecko) Chrome/120.0.0.0 Safari/537.36 Edg/120.0.0.0" etag="kkppHSpD7aMkFppWQwQX" version="22.1.8" type="github">
  <diagram name="Page-1" id="H9wFd4UOZeG_4EAj446I">
    <mxGraphModel dx="1386" dy="785" grid="1" gridSize="10" guides="1" tooltips="1" connect="1" arrows="1" fold="1" page="1" pageScale="1" pageWidth="850" pageHeight="1100" math="0" shadow="0">
      <root>
        <mxCell id="0" />
        <mxCell id="1" parent="0" />
        <mxCell id="wB75kNzjbZrsrU9e5xmI-3" value="" style="swimlane;startSize=0;" parent="1" vertex="1">
          <mxGeometry x="190" y="80" width="540" height="400" as="geometry">
            <mxRectangle x="130" y="200" width="50" height="40" as="alternateBounds" />
          </mxGeometry>
        </mxCell>
        <mxCell id="wB75kNzjbZrsrU9e5xmI-6" value="" style="swimlane;startSize=0;" parent="wB75kNzjbZrsrU9e5xmI-3" vertex="1">
          <mxGeometry x="15" y="10" width="85" height="130" as="geometry">
            <mxRectangle x="15" y="10" width="50" height="40" as="alternateBounds" />
          </mxGeometry>
        </mxCell>
        <mxCell id="wB75kNzjbZrsrU9e5xmI-11" value="" style="swimlane;startSize=0;" parent="wB75kNzjbZrsrU9e5xmI-3" vertex="1">
          <mxGeometry y="180" width="260" height="210" as="geometry" />
        </mxCell>
        <mxCell id="wB75kNzjbZrsrU9e5xmI-12" value="" style="whiteSpace=wrap;html=1;aspect=fixed;" parent="wB75kNzjbZrsrU9e5xmI-11" vertex="1">
          <mxGeometry x="2.5" width="100" height="100" as="geometry" />
        </mxCell>
        <mxCell id="wB75kNzjbZrsrU9e5xmI-15" value="" style="whiteSpace=wrap;html=1;aspect=fixed;" parent="wB75kNzjbZrsrU9e5xmI-11" vertex="1">
          <mxGeometry x="2.5" y="110" width="100" height="100" as="geometry" />
        </mxCell>
        <mxCell id="boKY76V7pXUngBBzNzyR-7" value="" style="swimlane;startSize=0;" vertex="1" parent="wB75kNzjbZrsrU9e5xmI-3">
          <mxGeometry x="280" y="180" width="260" height="210" as="geometry" />
        </mxCell>
        <mxCell id="boKY76V7pXUngBBzNzyR-8" value="" style="whiteSpace=wrap;html=1;aspect=fixed;" vertex="1" parent="boKY76V7pXUngBBzNzyR-7">
          <mxGeometry x="2.5" width="100" height="100" as="geometry" />
        </mxCell>
        <mxCell id="boKY76V7pXUngBBzNzyR-9" value="" style="whiteSpace=wrap;html=1;aspect=fixed;" vertex="1" parent="boKY76V7pXUngBBzNzyR-7">
          <mxGeometry x="2.5" y="110" width="100" height="100" as="geometry" />
        </mxCell>
        <mxCell id="wB75kNzjbZrsrU9e5xmI-1" value="" style="image;sketch=0;aspect=fixed;html=1;points=[];align=center;fontSize=12;image=img/lib/mscae/OpenShift.svg;" parent="1" vertex="1">
          <mxGeometry x="425" y="60" width="50" height="46" as="geometry" />
        </mxCell>
      </root>
    </mxGraphModel>
  </diagram>
</mxfile>
